<?xml version="1.0" encoding="UTF-8"?>
<svg version="1.1" xmlns="http://www.w3.org/2000/svg" width="263" height="192">
<path d="M0 0 C0.7839061 -0.00335861 1.56781219 -0.00671722 2.37547302 -0.01017761 C4.97510347 -0.01970106 7.57466959 -0.02163148 10.17431641 -0.02270508 C11.97791572 -0.02591692 13.78151477 -0.02928093 15.58511353 -0.03279114 C19.36973678 -0.03878605 23.15433718 -0.04063069 26.93896484 -0.04003906 C31.79027429 -0.03993747 36.64143728 -0.05358497 41.49271202 -0.07081127 C45.21931634 -0.08192669 48.94588522 -0.0839584 52.67250443 -0.08342934 C54.46108123 -0.08461033 56.24965893 -0.08903875 58.03821945 -0.0967617 C60.53990699 -0.10655144 63.04127616 -0.10368751 65.54296875 -0.09765625 C66.65279869 -0.10608551 66.65279869 -0.10608551 67.78504944 -0.11468506 C71.46170281 -0.09214384 74.35697135 -0.03875521 77.40087891 2.14526367 C79.70914842 5.60766794 79.64848999 6.89269695 79.64138794 10.9728241 C79.64551193 12.79646736 79.64551193 12.79646736 79.64971924 14.6569519 C79.64264099 16.00616553 79.63537137 17.35537817 79.62792969 18.70458984 C79.62736561 20.12373344 79.62768206 21.54287762 79.6288147 22.96202087 C79.62938935 26.81714315 79.61761685 30.67214138 79.60366678 34.52723479 C79.59117819 38.55512221 79.5899904 42.58301235 79.58761597 46.61091614 C79.58139569 54.23944306 79.56497747 61.86791277 79.54491699 69.49641448 C79.52257502 78.18071223 79.51156884 86.86501269 79.50152612 95.54933202 C79.48061171 113.41467503 79.4454251 131.27996475 79.40087891 149.14526367 C81.05087891 149.14526367 82.70087891 149.14526367 84.40087891 149.14526367 C84.40511085 148.57412118 84.40934278 148.00297869 84.41370296 147.41452885 C84.51687658 133.5360608 84.6255573 119.65764537 84.74021816 105.77926731 C84.79556502 99.06786933 84.84904935 92.35646604 84.89819336 85.64501953 C84.94576132 79.17408753 84.99810109 72.70321045 85.05381966 66.23234367 C85.07427762 63.75748999 85.09298486 61.28262123 85.10995293 58.80774117 C85.13392101 55.35451907 85.16398559 51.90140192 85.19555664 48.44824219 C85.2013121 47.41390549 85.20706757 46.37956879 85.21299744 45.31388855 C85.22768066 43.9108699 85.22768066 43.9108699 85.24266052 42.47950745 C85.24911307 41.66187707 85.25556562 40.84424669 85.26221371 40.00183964 C85.40087891 38.14526367 85.40087891 38.14526367 86.40087891 37.14526367 C87.87270383 37.03659381 89.34965789 36.99623643 90.82543945 36.98413086 C92.23777107 36.96971954 92.23777107 36.96971954 93.67863464 36.95501709 C94.70459244 36.95076721 95.73055023 36.94651733 96.78759766 36.94213867 C97.83736282 36.9364386 98.88712799 36.93073853 99.96870422 36.92486572 C102.19730618 36.91539669 104.42592226 36.90887423 106.65454102 36.9050293 C110.0565666 36.89535414 113.45798045 36.86436087 116.85986328 36.83276367 C119.02327115 36.82623087 121.18668334 36.82098149 123.35009766 36.81713867 C124.87385262 36.79861847 124.87385262 36.79861847 126.4283905 36.77972412 C131.78332374 36.79651136 135.87641682 36.93081282 140.40087891 40.14526367 C142.20235778 43.04269621 142.64948673 45.22719322 142.64138794 48.61248779 C142.64551193 49.94596504 142.64551193 49.94596504 142.64971924 51.30638123 C142.63893341 52.75755089 142.63893341 52.75755089 142.62792969 54.23803711 C142.62822174 55.26274612 142.62851379 56.28745514 142.6288147 57.34321594 C142.62742129 60.73044297 142.61185937 64.11745007 142.59619141 67.50463867 C142.59246132 69.85304647 142.58961433 72.20145582 142.58761597 74.54986572 C142.57997919 80.73126521 142.56033021 86.91257074 142.53820801 93.09393311 C142.51775061 99.40139495 142.50861447 105.70887197 142.49853516 112.01635742 C142.47708445 124.39270079 142.44294787 136.76897442 142.40087891 149.14526367 C146.69087891 149.14526367 150.98087891 149.14526367 155.40087891 149.14526367 C155.42771878 152.12448961 155.44763928 155.10347662 155.46337891 158.08276367 C155.47175781 158.93290039 155.48013672 159.78303711 155.48876953 160.65893555 C155.49199219 161.46782227 155.49521484 162.27670898 155.49853516 163.11010742 C155.50377197 163.85897217 155.50900879 164.60783691 155.5144043 165.37939453 C155.40087891 167.14526367 155.40087891 167.14526367 154.40087891 168.14526367 C151.2807719 168.24554725 148.18271961 168.27963782 145.06213379 168.27224731 C144.06968171 168.27380731 143.07722962 168.2753673 142.05470324 168.27697456 C138.70198142 168.2809892 135.34930424 168.27779313 131.99658203 168.2746582 C129.60399855 168.27601204 127.21141527 168.27779187 124.8188324 168.27996826 C118.97855988 168.28406861 113.13829912 168.28344931 107.29802692 168.28055562 C102.55358771 168.27830175 97.80915211 168.277989 93.06471252 168.27907944 C92.05372967 168.27930929 92.05372967 168.27930929 91.02232292 168.27954378 C89.65333919 168.27986349 88.28435545 168.2801877 86.91537172 168.28051637 C74.06354467 168.28337128 61.21172474 168.28008397 48.35989887 168.274716 C37.32065818 168.27024796 26.281428 168.27102388 15.2421875 168.27563477 C2.43789163 168.28098033 -10.366398 168.28309659 -23.17069483 168.2800225 C-24.53478146 168.27970394 -25.89886808 168.27938957 -27.26295471 168.27907944 C-27.93419781 168.27892516 -28.6054409 168.27877089 -29.2970247 168.27861194 C-34.038467 168.27774673 -38.77990535 168.27920974 -43.52134705 168.28155899 C-49.89715571 168.28464844 -56.27294914 168.28246443 -62.64875603 168.27666473 C-64.99621993 168.27533643 -67.3436855 168.27573243 -69.69114876 168.2779274 C-72.88091426 168.28063615 -76.07061469 168.27726116 -79.26037598 168.27224731 C-80.20228145 168.27447804 -81.14418693 168.27670876 -82.11463499 168.27900708 C-88.48497129 168.25941348 -88.48497129 168.25941348 -89.59912109 167.14526367 C-89.69899084 164.30191319 -89.73789991 161.48829204 -89.72412109 158.64526367 C-89.72798828 157.84733398 -89.73185547 157.0494043 -89.73583984 156.22729492 C-89.72572877 150.27187135 -89.72572877 150.27187135 -88.59912109 149.14526367 C-86.24598555 149.07254626 -83.89078441 149.06155499 -81.53662109 149.08276367 C-80.24626953 149.09178711 -78.95591797 149.10081055 -77.62646484 149.11010742 C-76.12792969 149.12750977 -76.12792969 149.12750977 -74.59912109 149.14526367 C-74.60280827 148.59750149 -74.60649544 148.0497393 -74.61029434 147.48537827 C-74.69863401 134.15674827 -74.76456969 120.82816956 -74.80636978 107.49930954 C-74.82726243 101.05354673 -74.85561128 94.60799489 -74.90087891 88.16235352 C-74.94427593 81.94429698 -74.96824555 75.72644364 -74.97863007 69.50824738 C-74.98603242 67.13351491 -75.0004871 64.75879382 -75.02204132 62.38414764 C-75.0509928 59.06306245 -75.05508044 55.74282153 -75.05322266 52.42163086 C-75.06760376 51.43548294 -75.08198486 50.44933502 -75.09680176 49.43330383 C-75.05645085 42.7861561 -75.05645085 42.7861561 -72.75823975 39.56549072 C-69.44972756 37.38921454 -66.82251414 37.01959279 -62.95996094 37.01586914 C-62.02243988 37.01271698 -61.08491882 37.00956482 -60.11898804 37.00631714 C-59.10954132 37.00834137 -58.1000946 37.0103656 -57.06005859 37.01245117 C-56.023461 37.01149445 -54.9868634 37.01053772 -53.91885376 37.009552 C-51.72829121 37.00887145 -49.53772664 37.01071703 -47.34716797 37.01489258 C-43.98058589 37.02025338 -40.61413657 37.01493778 -37.24755859 37.00854492 C-35.1225583 37.00920551 -32.99755808 37.01048628 -30.87255859 37.01245117 C-29.35231583 37.00941483 -29.35231583 37.00941483 -27.80136108 37.00631714 C-26.40453598 37.01104538 -26.40453598 37.01104538 -24.97949219 37.01586914 C-24.15581146 37.01666473 -23.33213074 37.01746033 -22.48348999 37.01828003 C-20.59912109 37.14526367 -20.59912109 37.14526367 -19.59912109 38.14526367 C-19.49144283 39.5869583 -19.45231157 41.03384225 -19.44090271 42.47950745 C-19.43111389 43.41485321 -19.42132507 44.35019897 -19.41123962 45.31388855 C-19.40548416 46.34822525 -19.3997287 47.38256195 -19.39379883 48.44824219 C-19.38389923 49.53103455 -19.37399963 50.6138269 -19.36380005 51.72943115 C-19.33207697 55.32765476 -19.30738506 58.9258916 -19.28271484 62.52416992 C-19.26215464 65.01139174 -19.24115843 67.49860999 -19.21974182 69.98582458 C-19.17008627 75.87544255 -19.12484607 81.76508164 -19.08171946 87.65475076 C-19.0275521 95.01555788 -18.96657505 102.37630586 -18.90576172 109.73706055 C-18.79806231 122.87308806 -18.69645444 136.00915547 -18.59912109 149.14526367 C-16.94912109 149.14526367 -15.29912109 149.14526367 -13.59912109 149.14526367 C-13.60280827 148.41288892 -13.60649544 147.68051416 -13.61029434 146.92594624 C-13.69862434 129.10723043 -13.76482043 111.28855831 -13.80636978 93.4696703 C-13.82699672 84.85258434 -13.85511976 76.23564451 -13.90087891 67.61865234 C-13.94074273 60.10824015 -13.96655295 52.59793378 -13.97547507 45.08741874 C-13.98069063 41.11045621 -13.99295152 37.13379643 -14.02204132 33.15693092 C-14.04920346 29.41324408 -14.05756462 25.66998452 -14.05155182 21.9262085 C-14.05317593 19.89819387 -14.07469455 17.87022571 -14.09680176 15.84233093 C-14.0913031 14.63223358 -14.08580444 13.42213623 -14.08013916 12.17536926 C-14.08382633 11.12544705 -14.0875135 10.07552485 -14.09131241 8.99378681 C-13.47275588 5.41393377 -12.0876677 3.74153024 -9.59912109 1.14526367 C-6.54358374 -0.38250501 -3.35248523 -0.00204225 0 0 Z M15.40087891 10.14526367 C14.81822266 10.51780273 14.23556641 10.8903418 13.63525391 11.27416992 C7.32649571 15.84642649 3.98246166 23.4068343 2.61572266 30.89135742 C1.75535813 39.91736345 4.25634275 47.87156029 9.96337891 54.83276367 C15.39043551 60.64101834 22.45976932 64.55456062 30.44384766 65.34838867 C38.74832407 65.52990728 45.86609252 63.40150489 52.40087891 58.14526367 C59.34871721 51.30201649 62.88119685 44.77120989 63.65087891 34.95776367 C62.99105286 24.89541649 59.15586912 17.26358469 51.60009766 10.54370117 C40.90635431 2.43447673 26.32783911 2.73054068 15.40087891 10.14526367 Z M-61.59912109 61.14526367 C-61.53533141 62.8153935 -61.39883994 64.48307352 -61.22412109 66.14526367 C-61.13388672 67.05276367 -61.04365234 67.96026367 -60.95068359 68.89526367 C-60.83111652 71.10975794 -60.83111652 71.10975794 -59.59912109 72.14526367 C-57.93483058 72.24350304 -56.26630178 72.27499998 -54.59912109 72.27026367 C-53.69162109 72.2728418 -52.78412109 72.27541992 -51.84912109 72.27807617 C-49.62945499 72.39700146 -49.62945499 72.39700146 -48.59912109 71.14526367 C-48.50088172 69.48097316 -48.46938478 67.81244436 -48.47412109 66.14526367 C-48.47154297 65.23776367 -48.46896484 64.33026367 -48.46630859 63.39526367 C-48.3473833 61.17559756 -48.3473833 61.17559756 -49.59912109 60.14526367 C-51.43027993 60.04675196 -53.26532043 60.01553738 -55.09912109 60.02026367 C-56.59958984 60.01639648 -56.59958984 60.01639648 -58.13037109 60.01245117 C-60.54311732 59.86655985 -60.54311732 59.86655985 -61.59912109 61.14526367 Z M-41.59912109 60.14526367 C-41.59912109 64.10526367 -41.59912109 68.06526367 -41.59912109 72.14526367 C-36.09727715 72.23792342 -36.09727715 72.23792342 -30.59912109 72.14526367 C-29.31299434 71.08547434 -29.31299434 71.08547434 -29.50146484 68.64135742 C-29.51306641 67.63202148 -29.52466797 66.62268555 -29.53662109 65.58276367 C-29.55724609 63.78838867 -29.57787109 61.99401367 -29.59912109 60.14526367 C-33.55912109 60.14526367 -37.51912109 60.14526367 -41.59912109 60.14526367 Z M99.40087891 60.14526367 C99.40087891 63.77526367 99.40087891 67.40526367 99.40087891 71.14526367 C101.78054011 72.33509427 103.31573625 72.27876333 105.96337891 72.27026367 C106.76904297 72.2728418 107.57470703 72.27541992 108.40478516 72.27807617 C110.40029911 72.36537758 110.40029911 72.36537758 111.40087891 71.14526367 C111.47314392 69.29238866 111.4846911 67.4369249 111.46337891 65.58276367 C111.44275391 63.78838867 111.42212891 61.99401367 111.40087891 60.14526367 C107.44087891 60.14526367 103.48087891 60.14526367 99.40087891 60.14526367 Z M118.40087891 60.14526367 C118.38025391 61.93963867 118.35962891 63.73401367 118.33837891 65.58276367 C118.32677734 66.59209961 118.31517578 67.60143555 118.30322266 68.64135742 C118.11475215 71.08547434 118.11475215 71.08547434 119.40087891 72.14526367 C120.87736766 72.24350363 122.35863308 72.27499886 123.83837891 72.27026367 C124.64146484 72.2728418 125.44455078 72.27541992 126.27197266 72.27807617 C128.45485822 72.28104693 128.45485822 72.28104693 130.40087891 71.14526367 C130.40087891 67.51526367 130.40087891 63.88526367 130.40087891 60.14526367 C126.44087891 60.14526367 122.48087891 60.14526367 118.40087891 60.14526367 Z M-60.59912109 80.14526367 C-61.91069625 82.76841399 -61.49562098 84.37559803 -61.16162109 87.27026367 C-60.97599609 88.87901367 -60.79037109 90.48776367 -60.59912109 92.14526367 C-56.63912109 92.14526367 -52.67912109 92.14526367 -48.59912109 92.14526367 C-48.56818359 89.45370117 -48.56818359 89.45370117 -48.53662109 86.70776367 C-48.52501953 85.69842773 -48.51341797 84.6890918 -48.50146484 83.64916992 C-48.31299434 81.205053 -48.31299434 81.205053 -49.59912109 80.14526367 C-51.45199611 80.07299866 -53.30745987 80.06145147 -55.16162109 80.08276367 C-56.17353516 80.09178711 -57.18544922 80.10081055 -58.22802734 80.11010742 C-59.01048828 80.12170898 -59.79294922 80.13331055 -60.59912109 80.14526367 Z M-41.59912109 80.14526367 C-41.59912109 84.10526367 -41.59912109 88.06526367 -41.59912109 92.14526367 C-37.63912109 92.14526367 -33.67912109 92.14526367 -29.59912109 92.14526367 C-29.56818359 89.45370117 -29.56818359 89.45370117 -29.53662109 86.70776367 C-29.52501953 85.69842773 -29.51341797 84.6890918 -29.50146484 83.64916992 C-29.31299434 81.205053 -29.31299434 81.205053 -30.59912109 80.14526367 C-34.26827879 80.0021608 -37.9262755 80.10304706 -41.59912109 80.14526367 Z M99.40087891 81.14526367 C99.32861389 82.99813869 99.31706671 84.85360245 99.33837891 86.70776367 C99.35900391 88.50213867 99.37962891 90.29651367 99.40087891 92.14526367 C103.36087891 92.14526367 107.32087891 92.14526367 111.40087891 92.14526367 C111.43181641 89.45370117 111.43181641 89.45370117 111.46337891 86.70776367 C111.47498047 85.69842773 111.48658203 84.6890918 111.49853516 83.64916992 C111.68700566 81.205053 111.68700566 81.205053 110.40087891 80.14526367 C108.73658839 80.0470243 107.0680596 80.01552736 105.40087891 80.02026367 C104.49337891 80.01768555 103.58587891 80.01510742 102.65087891 80.01245117 C100.4312128 79.89352588 100.4312128 79.89352588 99.40087891 81.14526367 Z M118.40087891 81.14526367 C118.32861389 82.99813869 118.31706671 84.85360245 118.33837891 86.70776367 C118.35900391 88.50213867 118.37962891 90.29651367 118.40087891 92.14526367 C122.36087891 92.14526367 126.32087891 92.14526367 130.40087891 92.14526367 C130.43181641 89.45370117 130.43181641 89.45370117 130.46337891 86.70776367 C130.47498047 85.69842773 130.48658203 84.6890918 130.49853516 83.64916992 C130.68700566 81.205053 130.68700566 81.205053 129.40087891 80.14526367 C127.73658839 80.0470243 126.0680596 80.01552736 124.40087891 80.02026367 C123.49337891 80.01768555 122.58587891 80.01510742 121.65087891 80.01245117 C119.4312128 79.89352588 119.4312128 79.89352588 118.40087891 81.14526367 Z M-61.59912109 103.14526367 C-61.81238513 108.75003457 -61.81238513 108.75003457 -60.59912109 114.14526367 C-56.63912109 114.14526367 -52.67912109 114.14526367 -48.59912109 114.14526367 C-48.56818359 111.45370117 -48.56818359 111.45370117 -48.53662109 108.70776367 C-48.52501953 107.69842773 -48.51341797 106.6890918 -48.50146484 105.64916992 C-48.31299434 103.205053 -48.31299434 103.205053 -49.59912109 102.14526367 C-51.43027993 102.04675196 -53.26532043 102.01553738 -55.09912109 102.02026367 C-56.59958984 102.01639648 -56.59958984 102.01639648 -58.13037109 102.01245117 C-60.54311732 101.86655985 -60.54311732 101.86655985 -61.59912109 103.14526367 Z M-41.59912109 102.14526367 C-41.59912109 106.10526367 -41.59912109 110.06526367 -41.59912109 114.14526367 C-36.09727715 114.23792342 -36.09727715 114.23792342 -30.59912109 114.14526367 C-29.3473833 113.11492978 -29.3473833 113.11492978 -29.46630859 110.89526367 C-29.46888672 109.98776367 -29.47146484 109.08026367 -29.47412109 108.14526367 C-29.47154297 107.23776367 -29.46896484 106.33026367 -29.46630859 105.39526367 C-29.3473833 103.17559756 -29.3473833 103.17559756 -30.59912109 102.14526367 C-34.26827879 102.0021608 -37.9262755 102.10304706 -41.59912109 102.14526367 Z M99.40087891 102.14526367 C99.40087891 106.10526367 99.40087891 110.06526367 99.40087891 114.14526367 C103.36087891 114.14526367 107.32087891 114.14526367 111.40087891 114.14526367 C111.40087891 110.18526367 111.40087891 106.22526367 111.40087891 102.14526367 C107.44087891 102.14526367 103.48087891 102.14526367 99.40087891 102.14526367 Z M118.40087891 103.14526367 C118.32861389 104.99813869 118.31706671 106.85360245 118.33837891 108.70776367 C118.35900391 110.50213867 118.37962891 112.29651367 118.40087891 114.14526367 C122.36087891 114.14526367 126.32087891 114.14526367 130.40087891 114.14526367 C130.40087891 110.18526367 130.40087891 106.22526367 130.40087891 102.14526367 C124.13900786 101.47692453 124.13900786 101.47692453 118.40087891 103.14526367 Z M16.40087891 104.14526367 C16.40087891 118.99526367 16.40087891 133.84526367 16.40087891 149.14526367 C22.15525391 149.16588867 27.90962891 149.18651367 33.83837891 149.20776367 C36.56559204 149.22141968 36.56559204 149.22141968 39.34790039 149.23535156 C40.78092373 149.23827079 42.21394789 149.24081933 43.64697266 149.24291992 C44.39756958 149.24803589 45.1481665 149.25315186 45.92150879 149.25842285 C47.74835492 149.25873359 49.57509573 149.2075748 51.40087891 149.14526367 C52.93172315 147.61441943 52.52803669 146.23323223 52.53027344 144.1003418 C52.53500168 142.81395813 52.53500168 142.81395813 52.53982544 141.50158691 C52.53780121 140.56931274 52.53577698 139.63703857 52.53369141 138.67651367 C52.53464813 137.72587036 52.53560486 136.77522705 52.53659058 135.79577637 C52.53727247 133.78157485 52.53541753 131.76737115 52.53125 129.75317383 C52.52590189 126.65856013 52.53119468 123.56409157 52.53759766 120.46948242 C52.53693688 118.51765918 52.53565572 116.56583603 52.53369141 114.61401367 C52.53571564 113.6817395 52.53773987 112.74946533 52.53982544 111.78894043 C52.53667328 110.93135132 52.53352112 110.07376221 52.53027344 109.19018555 C52.52947784 108.43153198 52.52868225 107.67287842 52.52786255 106.89123535 C52.59008978 105.11649055 52.59008978 105.11649055 51.40087891 104.14526367 C48.80753742 104.05675697 46.24025312 104.02993197 43.64697266 104.04760742 C42.95994263 104.0486145 42.2729126 104.04962158 41.56506348 104.05065918 C38.98948506 104.05590591 36.41393037 104.06986708 33.83837891 104.08276367 C28.08400391 104.10338867 22.32962891 104.12401367 16.40087891 104.14526367 Z " fill="#0F6596" transform="translate(98.59912109375,11.854736328125)"/>
<path d="M0 0 C4.95 0 9.9 0 15 0 C15.33 3.63 15.66 7.26 16 11 C17.98567708 10.96744792 19.97135417 10.93489583 21.95703125 10.90234375 C24 11 24 11 27 12 C27 16.95 27 21.9 27 27 C23.37 27.33 19.74 27.66 16 28 C15.67 31.63 15.34 35.26 15 39 C10.05 39 5.1 39 0 39 C0 35.04 0 31.08 0 27 C-3.96 27 -7.92 27 -12 27 C-12 22.05 -12 17.1 -12 12 C-10.370625 11.835 -8.74125 11.67 -7.0625 11.5 C-6.14597656 11.4071875 -5.22945313 11.314375 -4.28515625 11.21875 C-2 11 -2 11 -1 11 C-0.67 7.37 -0.34 3.74 0 0 Z " fill="#0F6397" transform="translate(124,27)"/>
<path d="M0 0 C1.93166016 0.01740234 1.93166016 0.01740234 3.90234375 0.03515625 C5.19269531 0.04417969 6.48304687 0.05320313 7.8125 0.0625 C8.81152344 0.07410156 9.81054688 0.08570313 10.83984375 0.09765625 C10.83984375 0.75765625 10.83984375 1.41765625 10.83984375 2.09765625 C6.54984375 2.09765625 2.25984375 2.09765625 -2.16015625 2.09765625 C-2.16015625 7.04765625 -2.16015625 11.99765625 -2.16015625 17.09765625 C78.02984375 17.09765625 158.21984375 17.09765625 240.83984375 17.09765625 C240.50984375 17.75765625 240.17984375 18.41765625 239.83984375 19.09765625 C208.90010303 19.12044611 177.96036452 19.13815416 147.0206174 19.14872158 C143.37173646 19.14997236 139.72285553 19.15126667 136.07397461 19.15258789 C135.34751753 19.1528502 134.62106045 19.15311251 133.87258952 19.15338277 C122.09448457 19.15773957 110.31638447 19.16562718 98.5382824 19.17480905 C86.46183535 19.1841453 74.38539086 19.1897118 62.30894035 19.19174474 C54.85114361 19.19312003 47.3933606 19.19747092 39.93556809 19.20557272 C34.22654397 19.21146054 28.51752874 19.21211528 22.8085022 19.21076393 C20.45942538 19.21104045 18.11034807 19.21304808 15.76127434 19.21686172 C12.56926926 19.22179234 9.37732429 19.22065689 6.18531799 19.21791077 C5.2427304 19.22082361 4.3001428 19.22373645 3.32899195 19.22673756 C-3.04603504 19.21177746 -3.04603504 19.21177746 -4.16015625 18.09765625 C-4.260026 15.25430577 -4.29893506 12.44068462 -4.28515625 9.59765625 C-4.28902344 8.79972656 -4.29289063 8.00179687 -4.296875 7.1796875 C-4.28491019 0.13241379 -4.28491019 0.13241379 0 0 Z " fill="#005C92" transform="translate(13.16015625,160.90234375)"/>
<path d="M0 0 C4.66310708 1.47256013 4.66310708 1.47256013 6.14903069 3.79892349 C7.07541594 6.19506726 7.24663633 7.90601382 7.24050903 10.46722412 C7.24325836 11.35620895 7.24600769 12.24519379 7.24884033 13.16111755 C7.24164978 14.128564 7.23445923 15.09601044 7.22705078 16.09277344 C7.22734283 17.11748245 7.22763489 18.14219147 7.22793579 19.19795227 C7.22654239 22.5851793 7.21098046 25.97218639 7.1953125 29.359375 C7.19158241 31.70778279 7.18873542 34.05619214 7.18673706 36.40460205 C7.17910028 42.58600154 7.15945131 48.76730707 7.1373291 54.94866943 C7.1168717 61.25613128 7.10773556 67.5636083 7.09765625 73.87109375 C7.07620554 86.24743712 7.04206897 98.62371075 7 111 C11.29 111 15.58 111 20 111 C20 111.66 20 112.32 20 113 C17.68756208 113.02685412 15.3750373 113.04632841 13.0625 113.0625 C11.77472656 113.07410156 10.48695313 113.08570313 9.16015625 113.09765625 C6 113 6 113 5 112 C4.90119581 110.63035887 4.87092423 109.25569057 4.86869812 107.88249207 C4.86468994 106.99499771 4.86068176 106.10750336 4.85655212 105.19311523 C4.8573452 103.72116699 4.8573452 103.72116699 4.8581543 102.21948242 C4.85467987 101.19188309 4.85120544 100.16428375 4.84762573 99.10554504 C4.84025325 96.8656233 4.83491586 94.62569418 4.83133507 92.38576317 C4.82419443 88.84340291 4.80854609 85.30118318 4.78999329 81.75886536 C4.73740964 71.68423388 4.68952955 61.60967786 4.67407227 51.53491211 C4.6640084 45.38039949 4.63472215 39.22623748 4.59275246 33.07186317 C4.58041263 30.72230999 4.5753266 28.37270733 4.57755089 26.02312279 C4.57989548 22.73793319 4.55779992 19.45375449 4.5300293 16.16870117 C4.53993141 14.70586197 4.53993141 14.70586197 4.55003357 13.21347046 C4.57294472 7.92303745 4.57294472 7.92303745 1.96687317 3.48945618 C1.31780502 2.99793564 0.66873688 2.5064151 0 2 C0 1.34 0 0.68 0 0 Z " fill="#005A8F" transform="translate(234,50)"/>
<path d="M0 0 C6.6752034 -0.02526945 13.35039457 -0.04283268 20.02563477 -0.05493164 C22.29842591 -0.05997325 24.5712138 -0.06680637 26.84399414 -0.07543945 C30.10303551 -0.08751261 33.36203417 -0.09322987 36.62109375 -0.09765625 C37.64400009 -0.10281754 38.66690643 -0.10797882 39.72080994 -0.11329651 C40.66170975 -0.11337204 41.60260956 -0.11344757 42.57202148 -0.11352539 C43.40475082 -0.115746 44.23748016 -0.11796661 45.09544373 -0.12025452 C47 0 47 0 48 1 C48.10767826 2.44169463 48.14680953 3.88857858 48.15821838 5.33424377 C48.1680072 6.26958954 48.17779602 7.2049353 48.18788147 8.16862488 C48.19651466 9.72012993 48.19651466 9.72012993 48.20532227 11.30297852 C48.21522186 12.38577087 48.22512146 13.46856323 48.23532104 14.58416748 C48.26704412 18.18239109 48.29173603 21.78062793 48.31640625 25.37890625 C48.33696645 27.86612807 48.35796266 30.35334632 48.37937927 32.84056091 C48.42903483 38.73017888 48.47427503 44.61981797 48.51740164 50.50948709 C48.57156899 57.87029421 48.63254604 65.23104219 48.69335938 72.59179688 C48.80105878 85.72782439 48.90266665 98.8638918 49 112 C48.01 111.505 48.01 111.505 47 111 C47 75.03 47 39.06 47 2 C45.68 2.33 44.36 2.66 43 3 C41.56538424 3.08312165 40.12744495 3.11785375 38.69042969 3.11352539 C37.84986023 3.11344986 37.00929077 3.11337433 36.14324951 3.11329651 C34.79616913 3.10555458 34.79616913 3.10555458 33.421875 3.09765625 C32.4953009 3.0962413 31.56872681 3.09482635 30.61407471 3.09336853 C27.65935008 3.08777824 24.70470167 3.0752275 21.75 3.0625 C19.74479276 3.05748375 17.73958433 3.05292106 15.734375 3.04882812 C10.82288737 3.03781199 5.9114566 3.020554 1 3 C0.67 2.01 0.34 1.02 0 0 Z " fill="#036094" transform="translate(31,49)"/>
<path d="M0 0 C0.33 0 0.66 0 1 0 C2.07840793 4.37146095 2.14510797 8.6349233 2.1328125 13.109375 C2.13376923 13.87679016 2.13472595 14.64420532 2.13571167 15.43487549 C2.1363896 17.04854413 2.13456243 18.66221556 2.13037109 20.27587891 C2.12498785 22.75559522 2.13034417 25.23513282 2.13671875 27.71484375 C2.13605848 29.28385457 2.13477837 30.85286527 2.1328125 32.421875 C2.13483673 33.16661072 2.13686096 33.91134644 2.13894653 34.6786499 C2.1149713 39.8850287 2.1149713 39.8850287 1 41 C-0.99958364 41.04080783 -3.00045254 41.04254356 -5 41 C-5 40.34 -5 39.68 -5 39 C-3.35 39 -1.7 39 0 39 C0 26.13 0 13.26 0 0 Z " fill="#015C90" transform="translate(85,122)"/>
<path d="M0 0 C1.1859375 0.00257812 2.371875 0.00515625 3.59375 0.0078125 C4.7796875 0.00523438 5.965625 0.00265625 7.1875 0 C10.09375 0.1328125 10.09375 0.1328125 11.09375 1.1328125 C11.1926794 3.29762047 11.223461 5.46575035 11.21875 7.6328125 C11.22132812 8.81875 11.22390625 10.0046875 11.2265625 11.2265625 C11.09375 14.1328125 11.09375 14.1328125 10.09375 15.1328125 C7.92894203 15.2317419 5.76081215 15.2625235 3.59375 15.2578125 C2.4078125 15.26039062 1.221875 15.26296875 0 15.265625 C-2.90625 15.1328125 -2.90625 15.1328125 -3.90625 14.1328125 C-4.0051794 11.96800453 -4.035961 9.79987465 -4.03125 7.6328125 C-4.03382812 6.446875 -4.03640625 5.2609375 -4.0390625 4.0390625 C-3.8625482 0.1765143 -3.8625482 0.1765143 0 0 Z M-2.90625 3.1328125 C-2.84246032 4.80294233 -2.70596885 6.47062235 -2.53125 8.1328125 C-2.44101562 9.0403125 -2.35078125 9.9478125 -2.2578125 10.8828125 C-2.13824542 13.09730677 -2.13824542 13.09730677 -0.90625 14.1328125 C0.75804051 14.23105187 2.42656931 14.26254881 4.09375 14.2578125 C5.00125 14.26039062 5.90875 14.26296875 6.84375 14.265625 C9.06341611 14.38455029 9.06341611 14.38455029 10.09375 13.1328125 C10.19198937 11.46852199 10.22348631 9.79999319 10.21875 8.1328125 C10.22132812 7.2253125 10.22390625 6.3178125 10.2265625 5.3828125 C10.34548779 3.16314639 10.34548779 3.16314639 9.09375 2.1328125 C7.26259117 2.03430079 5.42755067 2.00308621 3.59375 2.0078125 C2.09328125 2.00394531 2.09328125 2.00394531 0.5625 2 C-1.85024622 1.85410868 -1.85024622 1.85410868 -2.90625 3.1328125 Z " fill="#00559A" transform="translate(39.90625,69.8671875)"/>
<path d="M0 0 C1.1859375 0.00257812 2.371875 0.00515625 3.59375 0.0078125 C4.7796875 0.00523438 5.965625 0.00265625 7.1875 0 C10.09375 0.1328125 10.09375 0.1328125 11.09375 1.1328125 C11.1926794 3.29762047 11.223461 5.46575035 11.21875 7.6328125 C11.22132812 8.81875 11.22390625 10.0046875 11.2265625 11.2265625 C11.09375 14.1328125 11.09375 14.1328125 10.09375 15.1328125 C7.92894203 15.2317419 5.76081215 15.2625235 3.59375 15.2578125 C2.4078125 15.26039063 1.221875 15.26296875 0 15.265625 C-2.90625 15.1328125 -2.90625 15.1328125 -3.90625 14.1328125 C-4.0051794 11.96800453 -4.035961 9.79987465 -4.03125 7.6328125 C-4.03382812 6.446875 -4.03640625 5.2609375 -4.0390625 4.0390625 C-3.8625482 0.1765143 -3.8625482 0.1765143 0 0 Z M-2.90625 2.1328125 C-3.11951403 7.7375834 -3.11951403 7.7375834 -1.90625 13.1328125 C2.05375 13.1328125 6.01375 13.1328125 10.09375 13.1328125 C10.1246875 10.44125 10.1246875 10.44125 10.15625 7.6953125 C10.16785156 6.68597656 10.17945313 5.67664063 10.19140625 4.63671875 C10.37987676 2.19260183 10.37987676 2.19260183 9.09375 1.1328125 C7.26259117 1.03430079 5.42755067 1.00308621 3.59375 1.0078125 C2.09328125 1.00394531 2.09328125 1.00394531 0.5625 1 C-1.85024622 0.85410868 -1.85024622 0.85410868 -2.90625 2.1328125 Z " fill="#005596" transform="translate(39.90625,112.8671875)"/>
<path d="M0 0 C1.95825873 -0.02694851 3.91662226 -0.04637218 5.875 -0.0625 C6.96554688 -0.07410156 8.05609375 -0.08570312 9.1796875 -0.09765625 C12 0 12 0 14 1 C14.05389087 2.95803507 14.09274217 4.91648909 14.125 6.875 C14.14820312 7.96554688 14.17140625 9.05609375 14.1953125 10.1796875 C14 13 14 13 12 15 C9.1796875 15.1953125 9.1796875 15.1953125 5.875 15.125 C4.77929688 15.10695312 3.68359375 15.08890625 2.5546875 15.0703125 C1.71164063 15.04710937 0.86859375 15.02390625 0 15 C0 14.34 0 13.68 0 13 C5.445 12.505 5.445 12.505 11 12 C11 8.7 11 5.4 11 2 C7.37 1.67 3.74 1.34 0 1 C0 0.67 0 0.34 0 0 Z " fill="#035A92" transform="translate(57,113)"/>
<path d="M0 0 C1.95803507 -0.05389087 3.91648909 -0.09274217 5.875 -0.125 C7.51082031 -0.15980469 7.51082031 -0.15980469 9.1796875 -0.1953125 C12 0 12 0 14 2 C14.23046875 4.78515625 14.23046875 4.78515625 14.1875 8.0625 C14.17783203 9.68865234 14.17783203 9.68865234 14.16796875 11.34765625 C14 14 14 14 13 15 C11.31391034 15.07205511 9.62499341 15.08386068 7.9375 15.0625 C7.01839844 15.05347656 6.09929688 15.04445313 5.15234375 15.03515625 C4.44207031 15.02355469 3.73179688 15.01195313 3 15 C3 14.34 3 13.68 3 13 C5.97 13 8.94 13 12 13 C11.67 9.37 11.34 5.74 11 2 C7.37 1.67 3.74 1.34 0 1 C0 0.67 0 0.34 0 0 Z " fill="#046091" transform="translate(57,91)"/>
<path d="M0 0 C0.33 0 0.66 0 1 0 C1.02686553 1.97909398 1.04633375 3.95828971 1.0625 5.9375 C1.07410156 7.03964844 1.08570313 8.14179687 1.09765625 9.27734375 C1 12 1 12 0 13 C-1.85287502 13.07226502 -3.70833878 13.0838122 -5.5625 13.0625 C-6.57441406 13.05347656 -7.58632812 13.04445313 -8.62890625 13.03515625 C-9.41136719 13.02355469 -10.19382813 13.01195313 -11 13 C-11 12.34 -11 11.68 -11 11 C-7.7 11 -4.4 11 -1 11 C-1.020625 9.370625 -1.04125 7.74125 -1.0625 6.0625 C-1.08386068 4.37500659 -1.07205511 2.68608966 -1 1 C-0.67 0.67 -0.34 0.34 0 0 Z " fill="#015E90" transform="translate(230,93)"/>
<path d="M0 0 C0.33 0 0.66 0 1 0 C1 3.96 1 7.92 1 12 C1.66 12 2.32 12 3 12 C3 12.66 3 13.32 3 14 C1.68 13.67 0.36 13.34 -1 13 C-1.02686553 11.02090602 -1.04633375 9.04171029 -1.0625 7.0625 C-1.07410156 5.96035156 -1.08570313 4.85820313 -1.09765625 3.72265625 C-1 1 -1 1 0 0 Z " fill="#005B8D" transform="translate(56,92)"/>
</svg>
